<svg width="237" height="237" viewBox="0 0 237 237" fill="none" xmlns="http://www.w3.org/2000/svg">
<g clip-path="url(#clip0)">
<rect width="237" height="237" fill="url(#paint0_linear)"/>
<path d="M-8.0014 206.774C11.4427 174.934 65.3349 120.571 125.351 157.838C185.366 195.106 242.328 135.43 263.306 100.933" stroke="url(#paint1_linear)" stroke-width="10"/>
<path d="M-8.5604 191.848C9.48995 158.041 68.7543 96.6403 127.865 140.188C186.976 183.735 220.185 119.935 239.657 83.3038" stroke="url(#paint2_linear)" stroke-width="2"/>
<path d="M-9.76185 228.086C9.68227 196.246 57.5797 132.581 117.595 169.849C177.611 207.116 239.217 169.808 260.196 135.312" stroke="url(#paint3_linear)" stroke-width="5"/>
<path d="M44.68 150.16C42.76 146.86 34.08 146.16 33.1 146.07L32 146V166.29C31.7458 166.084 31.4748 165.9 31.19 165.74C30.1856 165.234 29.0892 164.938 27.967 164.867C26.8447 164.797 25.7198 164.954 24.66 165.33C20.54 166.66 17.89 170.46 18.75 173.8C18.9417 174.506 19.2768 175.166 19.7344 175.737C20.1921 176.308 20.7624 176.779 21.41 177.12C22.5202 177.712 23.7618 178.015 25.02 178C26.0325 177.999 27.0384 177.837 28 177.52C31.7 176.33 34.2 173.15 34.06 170.1V152.49C35.06 152.61 36.43 152.82 37.88 153.13C39.3154 153.348 40.6944 153.844 41.94 154.59C42.94 155.25 42.32 156.49 42.27 156.59C41.792 157.316 41.2353 157.986 40.61 158.59C40.4281 158.77 40.3224 159.014 40.3146 159.27C40.3068 159.526 40.3975 159.775 40.5681 159.966C40.7387 160.157 40.9761 160.275 41.2313 160.297C41.4866 160.318 41.7402 160.24 41.94 160.08C42.15 159.85 47.5 155 44.68 150.16Z" fill="#03A8A6"/>
<path d="M102.4 150.9C102.4 150.56 102.324 150.224 102.178 149.917C102.033 149.609 101.821 149.338 101.558 149.122C101.295 148.907 100.987 148.752 100.657 148.67C100.327 148.587 99.9827 148.579 99.6492 148.646L76.6492 153.246C76.128 153.35 75.6589 153.632 75.3218 154.043C74.9847 154.453 74.8003 154.968 74.8 155.5V176.462C74.046 176.286 73.2742 176.199 72.5 176.2C68.6889 176.2 65.6 178.259 65.6 180.8C65.6 183.342 68.6889 185.4 72.5 185.4C76.3111 185.4 79.4 183.342 79.4 180.8V161.986L97.8 158.306V171.862C97.046 171.687 96.2742 171.599 95.5 171.6C91.6889 171.6 88.6 173.659 88.6 176.2C88.6 178.742 91.6889 180.8 95.5 180.8C99.3111 180.8 102.4 178.742 102.4 176.2V150.9Z" fill="#03A8A6"/>
<path d="M146.68 129.673C144.76 126.098 136.08 125.34 135.1 125.243L134 125.167V147.202C133.743 146.975 133.469 146.772 133.18 146.595C132.176 146.047 131.079 145.726 129.957 145.649C128.835 145.573 127.71 145.744 126.65 146.151C122.57 147.592 119.92 151.708 120.78 155.327C120.972 156.092 121.307 156.806 121.764 157.425C122.222 158.044 122.792 158.554 123.44 158.923C124.55 159.565 125.792 159.893 127.05 159.877C128.052 159.876 129.047 159.704 130 159.368C133.67 158.089 136.17 154.677 136.06 151.394V133.118C138.291 133.36 140.489 133.88 142.61 134.668C142.858 134.771 143.134 134.763 143.377 134.647C143.619 134.53 143.81 134.313 143.905 134.045C144 133.776 143.994 133.477 143.886 133.214C143.778 132.951 143.578 132.745 143.33 132.642C140.958 131.759 138.497 131.188 136 130.941V127.518C139.33 127.908 144 129.013 144.92 130.768C146.92 134.462 142.59 138.741 142.55 138.784C142.368 138.98 142.262 139.243 142.255 139.52C142.247 139.798 142.338 140.068 142.508 140.275C142.679 140.482 142.916 140.61 143.171 140.633C143.427 140.656 143.68 140.572 143.88 140.398C144.15 140.171 149.5 134.917 146.68 129.673ZM129.35 157.309C128.542 157.627 127.682 157.766 126.824 157.717C125.965 157.669 125.124 157.434 124.35 157.028C123.94 156.801 123.578 156.485 123.287 156.099C122.996 155.713 122.782 155.266 122.66 154.785C122.06 152.261 124.11 149.314 127.24 148.22C127.983 147.958 128.759 147.823 129.54 147.819C130.461 147.8 131.372 148.031 132.19 148.491C132.6 148.717 132.962 149.033 133.253 149.419C133.544 149.805 133.758 150.253 133.88 150.733C134.54 153.268 132.49 156.215 129.35 157.309Z" fill="#03A8A6"/>
</g>
<defs>
<linearGradient id="paint0_linear" x1="57.9449" y1="1.7905e-05" x2="229.711" y2="82.3669" gradientUnits="userSpaceOnUse">
<stop stop-color="#00FFC2"/>
<stop offset="0.96875" stop-color="#03A8A6"/>
<stop offset="1" stop-color="#03A5A5"/>
</linearGradient>
<linearGradient id="paint1_linear" x1="1.98927" y1="193.415" x2="264.095" y2="152.267" gradientUnits="userSpaceOnUse">
<stop stop-color="#06D6D3"/>
<stop offset="1" stop-color="#00DCD9"/>
</linearGradient>
<linearGradient id="paint2_linear" x1="235.549" y1="93.8679" x2="-10.7096" y2="136.966" gradientUnits="userSpaceOnUse">
<stop stop-color="#00DCB9"/>
<stop offset="1" stop-color="white"/>
</linearGradient>
<linearGradient id="paint3_linear" x1="6.39052" y1="215.356" x2="261.73" y2="180.675" gradientUnits="userSpaceOnUse">
<stop stop-color="#09FFFC"/>
<stop offset="1" stop-color="#04807E"/>
</linearGradient>
<clipPath id="clip0">
<rect width="237" height="237" fill="white"/>
</clipPath>
</defs>
</svg>
