<svg width="73" height="73" viewBox="0 0 73 73" fill="none" xmlns="http://www.w3.org/2000/svg">
<path d="M62.2709 62.2545C69.1544 55.4162 73.0133 46.1536 73 36.5015C72.9926 35.9058 72.7486 35.3368 72.3202 34.9181C71.8918 34.4992 71.3142 34.2646 70.7122 34.2646C70.1099 34.2646 69.5323 34.4992 69.104 34.9181C68.6756 35.3368 68.4315 35.9058 68.4242 36.5015C68.4339 44.9602 65.0504 53.0772 59.0173 59.069C56.0885 62.0447 52.5871 64.4098 48.7195 66.0249C44.8522 67.6396 40.6972 68.4716 36.4997 68.4716C32.3021 68.4716 28.1471 67.6396 24.2797 66.0249C20.4123 64.4098 16.9109 62.0447 13.9821 59.069C7.95703 53.0712 4.5752 44.9575 4.5752 36.5002C4.5752 28.0426 7.95703 19.9289 13.9821 13.931C16.8938 10.9782 20.369 8.62676 24.2059 7.01303C28.0429 5.39934 32.1654 4.55546 36.3344 4.53035C37.2245 4.55794 38.0686 4.92863 38.6866 5.56333C39.3046 6.19799 39.6474 7.0465 39.6421 7.92786C39.6371 8.80921 39.2842 9.65369 38.6588 10.2813C38.0335 10.9088 37.1851 11.2697 36.2947 11.287C36.2122 11.2872 36.1297 11.2917 36.0479 11.3006C29.7052 11.5027 23.687 14.1237 19.2516 18.6154C14.5676 23.2818 11.9387 29.5923 11.9387 36.1698C11.9387 42.7474 14.5676 49.0577 19.2516 53.7241C21.54 56.044 24.274 57.8874 27.2928 59.146C30.3117 60.4045 33.5546 61.0528 36.8302 61.0528C40.1059 61.0528 43.3488 60.4045 46.3677 59.146C49.3863 57.8874 52.1204 56.044 54.4088 53.7241C59.1 49.0626 61.73 42.749 61.7206 36.1698C61.7303 35.1336 61.5323 34.1053 61.1384 33.1451C60.7441 32.1851 60.1618 31.3117 59.4246 30.5755C58.6874 29.8393 57.8103 29.2549 56.8437 28.8561C55.8771 28.4573 54.8405 28.252 53.7931 28.252C52.7457 28.252 51.709 28.4573 50.7425 28.8561C49.7759 29.2549 48.8988 29.8393 48.1616 30.5755C47.4244 31.3117 46.8421 32.1851 46.4478 33.1451C46.0539 34.1053 45.8559 35.1336 45.8655 36.1698C45.8655 36.2358 45.8699 36.298 45.8752 36.3614C45.8699 36.4248 45.8655 36.4883 45.8655 36.553C45.8806 38.3598 45.3527 40.1301 44.3491 41.6398C43.3458 43.1491 41.9118 44.3294 40.2294 45.0312C38.547 45.7327 36.6916 45.924 34.8994 45.5807C33.1069 45.237 31.4579 44.3747 30.1616 43.1022C28.8654 41.8298 27.9802 40.2051 27.6185 38.4341C27.2569 36.6631 27.4349 34.8256 28.1301 33.155C28.8253 31.4842 30.0063 30.0555 31.5233 29.0501C33.0403 28.0447 34.8249 27.5079 36.6506 27.5079C36.9534 27.5115 37.2539 27.4556 37.5347 27.3435C37.8155 27.2313 38.0709 27.0651 38.2862 26.8545C38.5016 26.6439 38.6729 26.393 38.7894 26.1165C38.9062 25.84 38.9663 25.5433 38.9663 25.2437C38.9663 24.944 38.9062 24.6474 38.7894 24.3709C38.6729 24.0943 38.5016 23.8435 38.2862 23.6329C38.0709 23.4223 37.8155 23.2561 37.5347 23.1439C37.2539 23.0318 36.9534 22.9759 36.6506 22.9795C33.9412 22.9944 31.2968 23.8031 29.0512 25.3037C26.8057 26.8042 25.0595 28.9294 24.033 31.411C23.0066 33.8925 22.7459 36.6194 23.2837 39.2476C23.8215 41.8757 25.1338 44.2871 27.0551 46.1781C28.9763 48.0687 31.4204 49.354 34.0791 49.8718C36.7374 50.3892 39.4915 50.116 41.9933 49.0864C44.495 48.0568 46.6328 46.3172 48.1366 44.0865C49.6404 41.8559 50.4426 39.2344 50.4426 36.553C50.4426 36.487 50.4383 36.4248 50.433 36.3614C50.4383 36.298 50.4426 36.2345 50.4426 36.1698C50.4336 35.7286 50.5138 35.2902 50.6784 34.8798C50.8426 34.4698 51.0884 34.0961 51.4002 33.7812C51.7124 33.466 52.085 33.2155 52.496 33.0447C52.907 32.8738 53.3487 32.7858 53.7944 32.7858C54.2402 32.7858 54.6819 32.8738 55.0929 33.0447C55.5039 33.2155 55.8765 33.466 56.1887 33.7812C56.5005 34.0961 56.7462 34.4698 56.9105 34.8798C57.0751 35.2902 57.1552 35.7286 57.1462 36.1698C57.1522 41.5562 54.9977 46.7246 51.1558 50.5399C49.2931 52.4339 47.0658 53.9389 44.6055 54.9668C42.1452 55.9948 39.5015 56.5241 36.8309 56.5241C34.1605 56.5241 31.517 55.9948 29.0566 54.9668C26.5963 53.9389 24.369 52.4339 22.5063 50.5399C18.6695 46.7213 16.5159 41.5549 16.5159 36.1698C16.5159 30.7846 18.6695 25.6183 22.5063 21.7996C24.3705 19.9081 26.5978 18.4044 29.0575 17.3767C31.5172 16.3491 34.1595 15.8182 36.8295 15.8154C37.0349 15.8148 37.2392 15.7869 37.4372 15.7321C39.385 15.4365 41.1536 14.4396 42.4043 12.9327C43.655 11.4258 44.2993 9.51495 44.2139 7.56678C44.1284 5.61857 43.3187 3.77022 41.9408 2.37629C40.5629 0.982342 38.7136 0.140959 36.7474 0.0135472C36.6653 0.00469371 36.5825 0.000171519 36.4997 0C36.4536 0 36.4079 0 36.3618 0C36.3391 0 36.317 0 36.295 0C36.273 0 36.2503 0.00264152 36.2282 0.00330235C31.4718 0.0403209 26.7699 1.00873 22.3935 2.85269C18.017 4.69664 14.0528 7.3797 10.7291 10.7471C3.85697 17.5927 0 26.8504 0 36.5002C0 46.1497 3.85697 55.4073 10.7291 62.2529C14.0835 65.6545 18.0916 68.358 22.5174 70.2034C26.9433 72.0491 31.6976 73 36.5003 73C41.3031 73 46.0572 72.0491 50.4834 70.2034C54.9092 68.358 58.9171 65.6545 62.2715 62.2529L62.2709 62.2545Z" fill="url(#paint0_linear)"/>
<defs>
<linearGradient id="paint0_linear" x1="17.848" y1="5.51505e-06" x2="70.7548" y2="25.3704" gradientUnits="userSpaceOnUse">
<stop stop-color="#00FFC2"/>
<stop offset="0.96875" stop-color="#03A8A6"/>
<stop offset="1" stop-color="#03A5A5"/>
</linearGradient>
</defs>
</svg>
