<svg width="30" height="21" viewBox="0 0 30 21" fill="none" xmlns="http://www.w3.org/2000/svg">
<path d="M29.7363 0.136719V0.678711C29.3652 0.708008 29.0527 0.810547 28.7988 0.986328C28.5449 1.16211 28.3203 1.43066 28.125 1.79199C28.0664 1.90918 27.7588 2.66602 27.2021 4.0625L20.9766 20.4541H20.4053L15.4834 7.65137L10.0635 20.4541H9.52148L2.98828 4.23828C2.32422 2.60742 1.86035 1.62109 1.59668 1.2793C1.33301 0.9375 0.888672 0.737305 0.263672 0.678711V0.136719H8.87695V0.678711C8.18359 0.698242 7.71973 0.805664 7.48535 1.00098C7.26074 1.18652 7.14844 1.4209 7.14844 1.7041C7.14844 2.0752 7.3877 2.86133 7.86621 4.0625L11.7627 13.7012L14.8828 6.17188L14.0625 4.0625C13.6133 2.91016 13.2666 2.14355 13.0225 1.7627C12.7783 1.37207 12.4951 1.09375 12.1729 0.927734C11.8604 0.761719 11.3965 0.678711 10.7812 0.678711V0.136719H20.4053V0.678711C19.7314 0.688477 19.248 0.742187 18.9551 0.839844C18.75 0.908203 18.5889 1.02539 18.4717 1.19141C18.3545 1.34766 18.2959 1.52832 18.2959 1.7334C18.2959 1.95801 18.5156 2.64648 18.9551 3.79883L22.5732 13.2031L25.8105 4.69238C26.1523 3.81348 26.3623 3.21289 26.4404 2.89062C26.5186 2.56836 26.5576 2.27051 26.5576 1.99707C26.5576 1.59668 26.4209 1.28418 26.1475 1.05957C25.874 0.825195 25.3516 0.698242 24.5801 0.678711V0.136719H29.7363Z" fill="#CECECE"/>
</svg>
